<?xml version="1.0" standalone="no"?>
<!DOCTYPE svg PUBLIC "-//W3C//DTD SVG 20010904//EN"
 "http://www.w3.org/TR/2001/REC-SVG-20010904/DTD/svg10.dtd">
<svg version="1.0" xmlns="http://www.w3.org/2000/svg"
 width="492.000000pt" height="493.000000pt" viewBox="0 0 492.000000 493.000000"
 preserveAspectRatio="xMidYMid meet">

<g transform="translate(0.000000,493.000000) scale(0.100000,-0.100000)"
fill="#000000" stroke="none">
<path d="M1635 4478 c-4 -18 -11 -37 -15 -43 -4 -5 -10 -29 -14 -52 -3 -24
-15 -59 -27 -79 -21 -38 -34 -75 -63 -179 -10 -33 -21 -68 -27 -77 -5 -10 -9
-28 -9 -42 0 -13 -7 -29 -15 -36 -8 -7 -15 -21 -15 -31 0 -10 -4 -20 -9 -23
-4 -3 -11 -26 -14 -51 -4 -24 -12 -55 -18 -67 -25 -48 -29 -58 -29 -76 0 -9
-6 -26 -13 -37 -8 -11 -21 -47 -31 -80 -10 -33 -21 -69 -26 -80 -5 -11 -11
-37 -15 -59 -3 -21 -10 -46 -15 -55 -26 -49 -58 -142 -101 -291 -9 -31 -24
-67 -49 -120 -4 -9 -11 -35 -15 -58 -4 -23 -11 -44 -16 -48 -5 -3 -9 -18 -9
-34 0 -16 -4 -31 -9 -34 -5 -3 -12 -22 -15 -41 -4 -19 -11 -35 -15 -35 -4 0
-16 -30 -26 -67 -10 -38 -21 -72 -25 -78 -4 -5 -11 -27 -14 -49 -4 -21 -18
-62 -32 -92 -13 -29 -24 -59 -24 -68 0 -8 -4 -18 -10 -21 -5 -3 -10 -19 -10
-35 0 -16 -4 -31 -9 -34 -5 -4 -12 -25 -16 -49 -3 -23 -18 -67 -32 -97 -35
-75 -41 -89 -48 -130 -8 -41 -26 -101 -36 -115 -4 -5 -10 -25 -14 -43 -3 -17
-10 -32 -15 -32 -4 0 -11 -20 -14 -45 -4 -24 -11 -47 -17 -50 -5 -4 -9 -19 -9
-35 0 -16 -4 -31 -9 -34 -5 -3 -12 -22 -15 -42 -4 -19 -16 -51 -26 -70 -11
-19 -23 -52 -26 -74 -4 -22 -10 -40 -15 -40 -5 0 -9 -11 -9 -24 0 -14 -4 -27
-9 -30 -4 -3 -11 -28 -15 -55 -4 -28 -11 -53 -16 -56 -6 -3 -10 -13 -10 -22 0
-14 -20 -65 -40 -104 -5 -9 -12 -33 -15 -53 -4 -20 -11 -39 -16 -42 -5 -3 -9
-15 -9 -27 0 -27 -22 -90 -37 -108 -6 -8 -14 -30 -17 -49 -7 -34 -20 -75 -36
-115 -5 -11 -11 -37 -15 -58 -3 -21 -17 -58 -31 -82 -13 -24 -24 -53 -24 -64
0 -11 -4 -23 -10 -26 -5 -3 -10 -17 -10 -31 l0 -24 649 0 649 0 7 50 c4 27 11
52 16 56 5 3 9 16 9 29 0 13 4 26 9 29 5 3 12 27 16 53 4 27 10 53 14 58 9 13
28 72 36 115 4 19 11 40 15 45 4 6 11 31 14 57 4 26 11 50 17 53 5 4 9 17 9
30 0 13 4 26 9 29 5 3 12 27 16 53 4 27 10 53 15 58 4 6 11 31 14 57 4 26 11
50 17 53 5 4 9 19 9 36 0 16 4 29 9 29 5 0 12 23 16 52 4 29 11 59 15 68 19
35 40 102 40 125 0 13 4 27 10 30 5 3 12 28 16 56 4 27 11 52 15 55 5 3 9 16
9 29 0 13 4 27 10 30 5 3 12 28 16 56 4 27 11 52 15 55 5 3 9 18 9 34 0 16 4
31 9 34 5 3 12 23 16 43 4 21 10 43 15 48 4 6 11 31 14 57 4 26 11 50 17 53 5
4 9 17 9 30 0 13 4 26 9 29 5 4 12 29 16 56 4 27 10 52 15 55 4 3 11 29 15 60
3 30 11 57 16 60 5 4 9 17 9 30 0 13 4 26 9 30 6 3 13 27 17 53 3 26 10 52 14
57 5 6 11 27 15 48 4 20 11 40 16 43 5 3 9 16 9 30 0 13 4 32 9 42 14 26 41
118 41 141 0 11 4 22 9 26 6 3 13 27 16 53 3 26 10 55 16 64 5 10 9 27 9 38 0
11 4 20 9 20 5 0 12 20 15 45 4 24 11 47 16 50 5 3 12 28 16 55 4 29 14 56 26
66 17 16 20 16 35 1 22 -22 51 -102 80 -225 3 -12 9 -25 14 -28 5 -3 9 -15 9
-27 0 -12 7 -35 15 -51 8 -15 15 -41 15 -57 0 -15 4 -30 9 -33 5 -4 12 -30 16
-59 4 -28 10 -56 14 -62 10 -17 31 -79 31 -95 0 -8 7 -28 15 -43 8 -15 17 -45
20 -65 6 -35 16 -65 35 -103 5 -9 11 -41 15 -73 4 -31 11 -59 16 -62 5 -3 9
-13 9 -22 0 -9 7 -30 15 -46 8 -15 15 -38 15 -50 0 -13 3 -26 8 -30 4 -4 12
-33 19 -64 22 -108 42 -174 56 -190 8 -10 18 -41 22 -69 4 -29 11 -55 16 -59
5 -3 9 -20 9 -39 0 -19 4 -36 9 -40 6 -3 13 -27 17 -53 4 -26 10 -49 14 -52
13 -10 40 -91 40 -120 0 -17 4 -30 9 -30 5 0 12 -27 16 -60 4 -33 11 -63 16
-66 5 -3 9 -16 9 -28 0 -13 7 -37 15 -52 8 -16 15 -37 15 -46 0 -9 4 -20 10
-23 5 -3 12 -28 16 -56 4 -27 11 -52 15 -55 5 -3 9 -18 9 -34 0 -16 4 -31 9
-34 4 -3 11 -26 15 -52 3 -26 10 -52 15 -58 4 -6 16 -38 26 -71 9 -33 21 -69
25 -80 5 -11 11 -41 15 -67 3 -26 10 -50 16 -53 5 -4 9 -17 9 -29 0 -13 7 -37
15 -52 8 -16 15 -37 15 -46 0 -9 5 -20 10 -23 6 -3 10 -19 10 -36 l0 -29 651
0 c616 0 651 1 644 18 -4 9 -10 28 -13 42 -2 14 -8 30 -12 35 -5 6 -11 27 -15
48 -4 20 -11 40 -16 43 -5 3 -9 18 -9 34 0 16 -4 32 -10 35 -5 3 -10 13 -10
22 0 13 -19 63 -40 103 -4 9 -11 31 -14 50 -4 19 -12 46 -18 60 -22 52 -27 66
-33 103 -3 20 -10 37 -14 37 -5 0 -11 18 -15 40 -6 39 -10 49 -34 96 -6 12
-14 39 -18 60 -3 22 -10 44 -14 49 -4 6 -11 26 -15 45 -4 19 -11 41 -15 50
-17 33 -29 68 -46 125 -9 33 -21 65 -25 70 -4 6 -10 27 -14 48 -4 20 -11 40
-16 43 -5 3 -9 16 -9 29 0 13 -4 26 -9 29 -5 3 -12 22 -16 42 -3 20 -10 44
-15 53 -5 9 -17 43 -26 76 -10 33 -24 71 -31 85 -7 14 -13 31 -13 38 0 7 -4
20 -9 30 -21 40 -30 70 -36 109 -4 24 -11 45 -16 49 -5 3 -9 12 -9 21 0 8 -7
31 -16 51 -26 59 -31 74 -48 129 -9 28 -16 58 -16 67 0 8 -8 29 -17 48 -31 61
-33 68 -33 87 0 11 -4 22 -9 25 -5 4 -12 24 -16 46 -4 22 -10 42 -15 45 -5 3
-11 24 -15 47 -4 23 -11 50 -16 60 -5 10 -13 26 -18 36 -5 10 -12 33 -16 52
-4 19 -11 40 -15 45 -4 6 -11 27 -14 49 -7 38 -11 48 -34 93 -7 12 -15 40 -18
63 -4 22 -10 40 -15 40 -5 0 -9 11 -9 24 0 14 -4 27 -9 30 -5 4 -12 24 -16 46
-4 22 -11 42 -16 46 -5 3 -9 16 -9 29 0 13 -4 26 -9 29 -5 3 -12 23 -16 43 -4
21 -10 43 -15 48 -4 6 -10 23 -14 39 -4 15 -15 47 -26 70 -10 22 -21 57 -24
77 -4 20 -15 54 -26 76 -10 21 -22 53 -26 69 -4 16 -10 34 -14 39 -4 6 -11 29
-15 52 -4 24 -11 45 -16 49 -5 3 -9 14 -9 24 0 17 -18 66 -41 112 -5 10 -9 27
-9 37 0 11 -4 22 -9 25 -5 4 -12 24 -16 46 -4 22 -11 42 -16 46 -5 3 -9 16 -9
29 0 13 -4 26 -9 29 -5 3 -12 22 -16 42 -3 20 -12 45 -18 55 -11 18 -40 19
-824 19 l-811 0 -7 -32z m1345 -27 l254 -6 12 -42 c7 -24 9 -45 4 -48 -11 -7
-84 -23 -173 -38 -43 -8 -72 -18 -77 -28 -7 -11 -31 -18 -80 -23 -38 -4 -72
-11 -75 -16 -3 -4 -36 -11 -75 -15 -39 -4 -73 -11 -76 -16 -3 -5 -23 -9 -45
-9 -28 0 -39 -4 -39 -15 0 -10 -10 -15 -34 -15 -19 0 -37 -4 -40 -9 -3 -4 -37
-11 -76 -15 -38 -4 -72 -11 -75 -17 -4 -5 -21 -9 -40 -9 -19 0 -37 -4 -40 -10
-4 -6 -57 -10 -125 -10 -68 0 -121 -4 -125 -10 -3 -5 -23 -10 -43 -10 -75 -1
-284 -38 -293 -51 -7 -12 -12 -12 -30 -1 -15 10 -24 11 -32 3 -6 -6 -24 -11
-40 -11 -15 0 -37 -5 -48 -10 -15 -8 -21 -7 -25 4 -5 12 33 154 82 304 8 23
14 47 14 53 0 5 7 25 14 44 l15 35 528 -1 c290 -1 643 -5 783 -8z"/>
<path d="M2440 2815 c0 -14 -4 -33 -9 -43 -5 -9 -17 -46 -26 -82 -10 -36 -21
-69 -25 -75 -5 -5 -11 -27 -15 -48 -4 -20 -11 -40 -16 -43 -5 -3 -9 -18 -9
-34 0 -16 -4 -31 -9 -34 -5 -3 -12 -31 -16 -62 -4 -32 -10 -64 -15 -73 -23
-48 -40 -94 -40 -111 0 -11 -4 -28 -9 -38 -10 -21 -31 -95 -38 -140 -3 -18 -9
-35 -14 -38 -5 -3 -9 -14 -9 -26 0 -11 -6 -34 -14 -51 -29 -70 -35 -86 -41
-133 -4 -27 -11 -53 -15 -59 -4 -5 -11 -32 -14 -60 -8 -52 -26 -105 -37 -105
-4 0 -9 -19 -13 -42 -4 -22 -10 -46 -14 -52 -7 -11 -27 -97 -39 -163 -3 -18
-9 -33 -14 -33 -5 0 -9 -10 -9 -23 0 -13 -7 -32 -15 -43 -8 -10 -15 -31 -15
-46 0 -15 -4 -29 -9 -32 -5 -4 -12 -30 -16 -59 -3 -28 -10 -61 -14 -72 -26
-64 -31 -77 -31 -91 0 -9 -7 -30 -15 -47 -8 -18 -19 -52 -25 -77 -6 -25 -14
-55 -17 -67 l-5 -23 641 0 c352 0 641 4 641 8 0 5 -3 12 -7 16 -11 11 -32 77
-39 123 -3 24 -10 43 -14 43 -4 0 -11 25 -15 57 -4 31 -10 63 -15 72 -18 37
-29 68 -36 101 -3 19 -10 40 -14 45 -4 6 -10 24 -13 40 -8 41 -28 117 -36 135
-4 8 -15 42 -25 75 -10 33 -22 67 -26 75 -4 9 -11 36 -15 60 -4 24 -11 51 -15
60 -5 8 -16 42 -25 75 -9 33 -20 69 -25 80 -5 11 -12 38 -15 60 -4 22 -10 45
-14 50 -10 14 -28 73 -36 115 -6 34 -10 46 -33 100 -6 14 -14 43 -17 65 -4 22
-10 45 -15 50 -4 6 -10 24 -13 40 -8 45 -31 119 -38 125 -3 3 -9 26 -13 52 -4
26 -11 50 -17 53 -5 4 -9 17 -9 30 0 13 -4 26 -9 29 -5 4 -12 29 -16 56 -4 27
-11 52 -15 55 -5 3 -11 22 -15 43 -7 44 -28 108 -38 118 -4 4 -7 16 -7 26 0
10 -4 18 -10 18 -5 0 -10 -11 -10 -25z"/>
</g>
</svg>
